<svg xmlns="http://www.w3.org/2000/svg" style="display: none;">
  <symbol id="onkron" viewBox="0 0 926.3 136.8">
     <path fill="currentColor" d="M697 0c47 0 73.9 19.7 73.9 68.4S744 136.8 697 136.8s-73.9-19.7-73.9-68.4S650.1 0 697 0m-39.2 68.4c0 28.1 11.1 43.6 39.3 43.6s39.3-15.5 39.3-43.6-11.1-43.6-39.3-43.6-39.3 15.5-39.3 43.6M73.9 0c47 0 73.9 19.7 73.9 68.4s-26.9 68.4-73.9 68.4S0 117.1 0 68.4 26.9 0 73.9 0M34.6 68.4c0 28.1 11.1 43.6 39.3 43.6s39.3-15.5 39.3-43.6-11.1-43.6-39.3-43.6-39.3 15.5-39.3 43.6M175.2 133.9c-4.7 0-8.6-3.9-8.6-8.6V11.4c0-4.7 3.8-8.6 8.5-8.6h27.1c4.5 0 9.8 4.3 12.6 8.6l55.4 85V11.2c0-4.7 3.9-8.4 8.6-8.4h15.8c4.9 0 8.6 3.7 8.6 8.6v113.9c0 4.7-3.8 8.6-8.6 8.6h-30.4c-4.9 0-10.3-3.9-13.3-8.6l-50.7-78.5v78.5c0 4.7-3.9 8.6-8.6 8.6h-16.2ZM338.1 133.9c-4.7 0-8.6-3.9-8.6-8.8V11.4c0-4.9 3.9-8.8 8.6-8.8h17.3c4.7 0 8.6 3.9 8.6 8.8v43.8h19.7c10.7 0 18.4-5.4 25.7-18.5l14.3-25.3c3.4-6 8.5-8.8 13.2-8.8h21.2c4.7 0 5.6 3.7 2.8 8.8l-19.9 36c-4.7 8.4-10.9 17.2-23.7 20.2 9 1.9 18.4 13.3 23.7 21.4l22.9 36.3c3 4.9 1.7 8.6-3.2 8.6h-21c-4.7 0-11.1-3.7-14.1-8.6l-16.2-25.5c-7-11.1-13.9-18.7-25.7-18.7H364v44.4c0 4.7-3.9 8.4-8.6 8.4zM513.4 86v39.3c0 4.7-3.8 8.6-8.6 8.6h-17.3c-4.7 0-8.6-3.9-8.6-8.6V11.4c0-4.9 3.8-8.6 8.5-8.6h75.7c27.4 0 47.9 15.7 47.9 41.6S595.4 74 576.4 77.7c7.7 2.8 13.3 9.4 20.9 21.2l16.7 26.4c3 4.9 1.7 8.6-3.2 8.6h-22c-4.7 0-11.1-3.7-14.1-8.6l-15.6-24.4c-4.7-7.3-11.5-15-23.3-15h-22.4Zm0-57.3v31.5h39.1c10.5 0 23.9-3.7 23.9-15.7s-13.3-15.7-23.9-15.7h-39.1ZM798.3 133.9c-4.7 0-8.6-3.9-8.6-8.6V11.4c0-4.7 3.8-8.6 8.5-8.6h27.1c4.5 0 9.8 4.3 12.6 8.6l55.4 85V11.2c0-4.7 3.9-8.4 8.6-8.4h15.8c4.9 0 8.6 3.7 8.6 8.6v113.9c0 4.7-3.8 8.6-8.6 8.6h-30.4c-4.9 0-10.3-3.9-13.3-8.6l-50.7-78.5v78.5c0 4.7-3.9 8.6-8.6 8.6h-16.2Z"/>
  </symbol>


  <symbol id="factory" viewBox="0 0 231.4 188.5">
    <path fill="currentColor" d="M13.8 66.7h38.3L45.2 8.2H20.8l-6.9 58.5Zm42.7 8.2H9.4c-1.1 0-2.2-.5-3-1.3s-1.2-2-1.1-3.1l7.5-66.7C13 1.7 14.7 0 16.9 0h32c2.2 0 3.9 1.6 4.1 3.8l7.5 66.3v.8c0 2.3-1.8 4.1-4.1 4.1Z"/>
    <path fill="currentColor" d="M50.3 26.2H28c-2.3 0-4.1-1.8-4.1-4.1S25.7 18 28 18h22.3c2.3 0 4.1 1.8 4.1 4.1s-1.8 4.1-4.1 4.1M8.2 180.3h215V71.9c-8.2-13.7-17.8-22.2-33.8-22.2s-31.6 8.9-39.7 23.1c-.7 1.3-2.1 2.1-3.6 2.1s-2.8-.8-3.6-2.1c-8.1-14.3-23.3-23.1-39.7-23.1s-26.3 8.9-34.4 23.1c-.7 1.3-2.1 2.1-3.6 2.1H8.2zm219.1 8.2H4.1c-2.3 0-4.1-1.8-4.1-4.1V70.8c0-2.3 1.8-4.1 4.1-4.1h58.5c9.8-15.6 21.7-25.2 40.3-25.2s33.2 8.2 43.2 21.8c10.1-13.6 26.1-21.8 43.2-21.8s32 10.5 41.5 27.3c.4.6.5 1.3.5 2v113.6c0 2.3-1.8 4.1-4.1 4.1Z"/>
    <path fill="currentColor" d="M101.7 124.5c-5.2 0-9.4 4.2-9.4 9.5s4.2 9.4 9.4 9.4 9.4-4.2 9.4-9.4-4.2-9.5-9.4-9.5m0 27.1c-9.7 0-17.6-7.9-17.6-17.6s7.9-17.7 17.6-17.7 17.7 7.9 17.7 17.7-7.9 17.6-17.7 17.6M146.1 124.5c-5.2 0-9.4 4.2-9.4 9.5s4.2 9.4 9.4 9.4 9.4-4.2 9.4-9.4-4.2-9.5-9.4-9.5m0 27.1c-9.7 0-17.7-7.9-17.7-17.6s7.9-17.7 17.7-17.7 17.6 7.9 17.6 17.7-7.9 17.6-17.6 17.6M190.4 124.5c-5.2 0-9.4 4.2-9.4 9.5s4.2 9.4 9.4 9.4 9.4-4.2 9.4-9.4-4.2-9.5-9.4-9.5m0 27.1c-9.7 0-17.6-7.9-17.6-17.6s7.9-17.7 17.6-17.7 17.7 7.9 17.7 17.7-7.9 17.6-17.7 17.6M8.2 143.4h48.5v-18.9H8.2zm52.6 8.2H4.1c-2.3 0-4.1-1.8-4.1-4.1v-27.1c0-2.3 1.8-4.1 4.1-4.1h56.7c2.3 0 4.1 1.8 4.1 4.1v27.1c0 2.3-1.8 4.1-4.1 4.1"/>
    <path fill="currentColor" d="M32.4 151.6c-2.3 0-4.1-1.8-4.1-4.1v-27.1c0-2.3 1.8-4.1 4.1-4.1s4.1 1.8 4.1 4.1v27.1c0 2.3-1.8 4.1-4.1 4.1"/>
  </symbol>

  <symbol id="globe" viewBox="0 0 185.2 215.9">
    <path fill="currentColor" d="M105.5 129.2c-35.6 0-64.6-29-64.6-64.6S69.9 0 105.5 0s64.6 29 64.6 64.6-29 64.6-64.6 64.6m0-121.2C74.3 8 48.9 33.4 48.9 64.6s25.4 56.6 56.6 56.6 56.6-25.4 56.6-56.6S136.7 8 105.5 8"/>
    <path fill="currentColor" d="M81.2 108.6c-.5 0-1.1 0-1.6-.2-3-.7-5.2-3.1-5.8-6.3-.1-.8-.4-1.6-.7-2.5-.7-2.1-1.7-4.8-1-8.8.6-3.5 0-5-.7-6-.8-.2-3 0-4.2.6-1.7.9-3.7.9-5.6 0-3.1-1.4-5.7-5.2-6.8-9.7-1.5-6.2 1.7-9.1 4.3-11.4.6-.5 1.2-1 1.8-1.6 1.2-1.2 7.5-7 13.1-5.6 1.9.5 3.5 1.8 4.3 3.7 1.4-.2 3.5-.4 6.3-.1 3.5.4 6 1.6 7.6 3.7 1.9 2.6 1.8 5.6 1.5 8 1.8.2 3.9.4 5.7 1.8 1.6 1.2 2.4 3.1 2.3 5.1-.3 3.7-3.8 6.6-5.7 7.6-.9.5-1.2.7-.9 2.3 1 5-1.6 8.5-4.2 12.3-.5.7-1 1.5-1.6 2.3-2.1 3.1-5 4.9-8 4.9ZM70.4 76.7c2.7 0 5.3.7 7 2.8 2.7 3.2 3.5 7.2 2.6 12.6-.3 2 0 3.2.7 4.9.3 1 .7 2.1 1 3.4.3-.2.6-.6 1-1.1.6-.9 1.2-1.7 1.7-2.4 2.4-3.4 3.2-4.6 2.9-6.2-.9-4.7.6-8.3 4.5-10.6-1.8-.2-3.9-.7-5.2-2.5-.7-.9-1.4-2.4-1-4.5 0-.2 0-.5.1-.7.2-.9.5-2.8.2-3.2s-.4-.4-2-.5c-2.3-.2-3.8 0-5 .2-1.9.3-5.6.8-7.4-3.7-1.1.4-3 1.5-4.8 3.3-.8.7-1.5 1.4-2.1 1.9q-2.2 2-1.9 3.6c.5 2.1 1.5 3.5 2 4.1 1.6-.7 3.7-1.1 5.8-1.1ZM134.8 106.5c-6.3 0-7.3-3.6-8-8.5-.2-1.1-.5-2.3-.8-3.4-.7-2.5-1.4-5.2 0-7.6.6-1 1.7-2.2 3.8-2.7.5-.1.9-.2 1.4-.3 3.2-.7 4.7-1.2 5.4-2.9 2.4-5.4 10.2-7.4 14.1-6.2 1.6.5 2.7 1.6 3.3 2.9 2.9-2.2 7.1-4.4 12.1-1.9 2 1 2.7 3.4 1.7 5.4s-3.4 2.7-5.4 1.7c-1.2-.6-2.2-.1-5.1 2.3l-.4.3c-2.9 2.4-5.8 2-7.6.9-1.4-.9-2.4-2.3-2.8-3.9-1.1.3-2.3.9-2.5 1.6-2.4 5.3-7.2 6.6-10.5 7.3 0 .3.2.6.2.8.4 1.3.8 2.8 1 4.4 0 .5.2 1.2.3 1.7.3 0 .8 0 1.4-.1.6 0 1-.2 1.1-.2 1.3-1.5 2.8-2.5 6.3-2.7h.4c4.7-.2 9.6-.4 12.3 5.1 1 2 .2 4.4-1.8 5.3-2 1-4.4.2-5.3-1.8-.3-.7-.4-.9-4.8-.7h-1.1c-1.2 1.4-2.8 2.4-6.1 2.8-.9.1-1.7.2-2.4.2ZM155.1 69.2c-3.6 0-7.6-2.1-10-4.7-2.3-.7-10.9-.4-16-.2-11.1.4-15.9.5-18.6-1.1-5.4-3.2-4.7-8.8-4.4-11.8V51c-2.5-.8-8.3-1.4-12.8-1.1-1.5.1-1.7.3-2.1.6-1.3 1.1-2.9 2.3-6.5 1.8-1-.1-3.9-.6-5.6-3.1-1.8-2.7-.9-5.8 0-8.9 1.2-4 5.6-6.2 10-7.6-1.7-.9-2.7-2.5-2.6-4.3 0-1.8.9-4.4 7.4-8.5 3.8-2.4 8-4.3 11.2-5.1 5.6-1.4 12-.3 17.7.7 2.4.4 4.7.8 6.7 1h1.3c1 .2 2.1.3 2.7.3.1-.2.3-.3.4-.5.2-.3.5-.6.8-1 1.4-1.8 2.9-3 4.7-3.6 2.1-.8 4.4.3 5.1 2.4.8 2.1-.3 4.4-2.4 5.1-.2 0-.5.2-1.2 1.1-.3.3-.5.6-.7.9-2.9 3.9-4.6 3.9-10.2 3.5h-1.3c-2.3-.3-4.8-.7-7.4-1.2-5.2-.9-10.5-1.8-14.5-.8-3.3.8-7.3 3-10 4.8 2.4 1.3 4.7 3.3 4.9 6 0 1.7-.8 3.8-3.4 4.9-.9.3-1.9.7-3.3 1-1.8.5-7.4 2.1-8.4 3.4-.1.4-.3.9-.4 1.4 1.2-1 3-2 6.3-2.2 3-.2 15.3-.2 19.5 3.4 1.5 1.3 1.9 2.8 1.9 3.7 0 1.1 0 2.2-.2 3.3-.3 3-.2 3.5.4 3.9 1.8.6 9.3.3 14.3 0 14-.6 19.5-.5 22.1 2.6.9 1.1 2.5 1.9 3.5 2.2.8-4.3 3-5.6 5.1-6.7.5-.2.8-.4 1.1-.6.7-.5 1.1-.9 1.3-1.3 1.2-1.9 3.6-2.4 5.5-1.2s2.4 3.6 1.2 5.5c-1 1.6-2.3 2.7-3.3 3.4s-1.9 1.1-2.5 1.5c-.2 0-.4.2-.5.2 0 .2-.2.5-.2 1.2-.4 2.8-2.1 5-4.8 5.8-.7.2-1.5.3-2.3.3ZM123.5 189.8H51.6c-2.2 0-4-1.8-4-4s1.8-4 4-4h70.3l53.4-50.2c-6.8-5.3-13.2-5-20.8.8-11.4 8.5-28.2 21.3-28.4 21.4-1.8 1.3-4.3 1-5.6-.8s-1-4.3.8-5.6c.2-.1 17-12.9 28.4-21.4 12-9 23.5-8.1 34.3 2.7.8.8 1.2 1.8 1.2 2.9s-.5 2.1-1.3 2.8l-57.7 54.3c-.7.7-1.7 1.1-2.7 1.1"/>
    <path fill="currentColor" d="M79.3 166.9c-2.2 0-4-1.8-4-4s1.8-4 4-4h40.8c-.6-3.8-2-6.5-4.3-8.3-2.5-1.9-5.4-2.1-6.3-2.1H88.1c-.8 0-1.6-.2-2.2-.7-9.4-6.3-14.9-7.4-25.7-7.4-12.9 0-23.1 6.5-36.3 23.1-1.4 1.7-3.9 2-5.6.6s-2-3.9-.6-5.6c14.7-18.5 27.1-26.1 42.5-26.1 11.5 0 18.5 1.2 29.1 8.1h20.2c1.9 0 6.7.4 11.1 3.7 3.5 2.7 7.7 8 7.7 18.6 0 1.1-.4 2.1-1.2 2.8-.7.7-1.8 1.2-2.8 1.2H79.2Z"/>
    <path fill="currentColor" d="M49.1 215.9c-1 0-2-.4-2.8-1.2-1.6-1.6-1.6-4.1 0-5.6l7.4-7.4-42.6-42.6c-1.6-1.6-1.6-4.1 0-5.6 1.6-1.6 4.1-1.6 5.6 0l45.4 45.4c.7.7 1.2 1.8 1.2 2.8s-.4 2.1-1.2 2.8l-10.2 10.2c-.8.8-1.8 1.2-2.8 1.2"/>
    <path fill="currentColor" d="M49.1 215.9c-1 0-2-.4-2.8-1.2-1.6-1.6-1.6-4.1 0-5.6l7.4-7.4-39.8-39.8-7.2 7.2c-1.6 1.6-4.1 1.6-5.6 0-1.6-1.6-1.6-4.1 0-5.6l10-10c1.6-1.6 4.1-1.6 5.6 0l45.4 45.4c.7.7 1.2 1.8 1.2 2.8s-.4 2.1-1.2 2.8l-10.2 10.2c-.8.8-1.8 1.2-2.8 1.2"/>
  </symbol>

  <symbol id="3M" viewBox="0 0 202.8 151.6">
    <path fill="currentColor" d="M49.5 145.8c-11 0-21-2.6-29.8-7.6-8.9-5.2-15.5-12.9-19.5-23-.8-2 0-4.4 1.9-5.5l22.2-12.8c1.2-.7 2.6-.8 3.8-.3s2.2 1.5 2.6 2.8c2.7 8.3 8.6 12.2 18.7 12.2s9.8-1.3 12.6-3.7c2.7-2.3 4-5.5 4-9.7s-1.3-7.3-4.1-9.7c-2.8-2.5-7.1-3.8-12.6-3.8h-5.6c-1.5 0-2.9-.7-3.7-2l-10-15c-1-1.6-1-3.6.2-5.1l20.5-26.7H8.4c-2.4 0-4.4-2-4.4-4.4V7.2c0-2.4 2-4.4 4.4-4.4h82.7c2.4 0 4.4 2 4.4 4.4v21.4q0 1.5-.9 2.7L73.7 58.5c7.1 3 13.1 7.4 17.9 13.1 6.2 7.4 9.4 16.3 9.4 26.6 0 14.8-5.1 26.7-15.2 35.1-9.9 8.3-22 12.5-36.2 12.5Zm-39.4-30.4c3.3 6.5 7.9 11.5 14.1 15.1 7.4 4.3 15.9 6.5 25.3 6.5s22.2-3.4 30.5-10.4c8.1-6.8 12.1-16.1 12.1-28.4s-2.4-15.1-7.3-20.9c-5-5.9-11.6-10.1-19.6-12.4-1.4-.4-2.5-1.5-2.9-2.9s-.2-2.9.7-4.1l23.7-30.8V11.6H12.8V27h47.1c1.7 0 3.2 1 4 2.5.7 1.5.6 3.3-.5 4.6l-24 31.3 6.9 10.4h3.3c7.7 0 13.9 2 18.4 6 4.7 4.1 7 9.6 7 16.3s-2.4 12.3-7.1 16.4c-4.5 3.9-10.7 5.9-18.4 5.9-14.2 0-21.4-6.5-25-13.3z"/>
    <g>
      <path fill="currentColor" d="M167.8 141.6h-18.9c-2.4 0-4.4-2-4.4-4.4v-29.9l-13.2 20.2c-.8 1.2-2.2 2-3.7 2h-2.1c-1.5 0-2.9-.8-3.7-2L103.1 99c-1.3-2-.8-4.8 1.3-6.1 2-1.3 4.8-.8 6.1 1.3l16 24.5 18.7-28.6c1.1-1.6 3.1-2.4 5-1.8s3.2 2.3 3.2 4.2v40.3h10V64.7h-12.1l-21.1 32.2c-.8 1.2-2.2 2-3.7 2s-2.9-.7-3.7-2l-20.2-30.8h-9.4c-2.4 0-4.4-2-4.4-4.4s2-4.4 4.4-4.4H105c1.5 0 2.9.7 3.7 2l17.8 27.2 18.7-28.6c.8-1.2 2.2-2 3.7-2h18.9c2.4 0 4.4 2 4.4 4.4v77c0 2.4-2 4.4-4.4 4.4Z"/>
    </g>
  </symbol>

  <symbol id="manipulator" viewBox="0 0 196.3 189.6">
    <path fill="currentColor" d="M65.5 116.5c-8.6 0-15.7-7-15.7-15.7s7-15.7 15.7-15.7 15.7 7 15.7 15.7-7 15.7-15.7 15.7m0-23.2c-4.2 0-7.6 3.4-7.6 7.6s3.4 7.6 7.6 7.6 7.6-3.4 7.6-7.6-3.4-7.6-7.6-7.6M89.8 27c-6.3 0-11.4-5.1-11.4-11.4S83.5 4.2 89.8 4.2s11.4 5.1 11.4 11.4S96.1 27 89.8 27m0-14.7c-1.8 0-3.3 1.5-3.3 3.3s1.5 3.3 3.3 3.3 3.3-1.5 3.3-3.3-1.5-3.3-3.3-3.3M77.5 81.2c-.6 0-1.2-.1-1.8-.4q-4.8-2.4-10.2-2.4c-5.4 0-6.8.8-9.9 2.3-1.5.7-3.3.5-4.5-.6s-1.6-2.9-1.1-4.4l19-50.2c.5-1.4 1.8-2.4 3.3-2.6s3 .5 3.8 1.8c3 4.6 8.1 7.3 13.6 7.3s1.9 0 2.8-.2c1.4-.2 2.9.3 3.8 1.4s1.2 2.6.7 4L81.3 78.8c-.4 1.1-1.2 1.9-2.3 2.3q-.75.3-1.5.3Zm-12-10.9c3.3 0 6.6.5 9.7 1.6l12.1-32.1c-4.8-.5-9.4-2.4-13-5.5L60.5 70.7c1.6-.3 3.3-.4 5-.4" />
    <path fill="currentColor" d="M99.9 159.5c-2 0-3.8-1.5-4-3.6l-4-39.4c-5.4 9.2-15.4 15.1-26.4 15.1s-4-1.8-4-4 1.8-4 4-4c10.1 0 19.1-6.8 21.7-16.5.5-1.7 2.1-3 3.9-3H95c2.1 0 3.8 1.6 4 3.6l4.8 47.5c.2 2.2-1.4 4.2-3.6 4.4h-.4Z" />
    <path fill="currentColor" d="M31.2 159.5h-.4c-2.2-.2-3.8-2.2-3.6-4.4l4.8-47.5c.2-2.1 1.9-3.6 4-3.6h3.9c1.8 0 3.4 1.2 3.9 3 2.7 9.7 11.6 16.5 21.7 16.5s4 1.8 4 4-1.8 4-4 4c-11 0-21-5.9-26.4-15.1l-4 39.5c-.2 2.1-2 3.6-4 3.6Z" />
    <path fill="currentColor" d="M127.1 189.6H4c-2.2 0-4-1.8-4-4v-13.1c0-11.6 9.4-21 21-21h89c11.6 0 21 9.4 21 21v13.1c0 2.2-1.8 4-4 4ZM8 181.6h115v-9.1c0-7.2-5.8-13-13-13H21c-7.2 0-13 5.8-13 13zM170.5 42.7c-9.1 0-16.4-7.4-16.4-16.4s-45.2 0-45.2 0c-1.3 0-2.5-.6-3.3-1.7s-1-2.4-.5-3.6c.6-1.7.9-3.5.9-5.3 0-3.4-1-6.6-3-9.3-.9-1.2-1-2.8-.3-4.2.7-1.3 2.1-2.2 3.6-2.2h59.5c11.6 0 21 9.4 21 21v5.3c0 9.1-7.4 16.4-16.4 16.4Zm-12.4-24.5c1.1 0 2.1.4 2.8 1.2.8.8 1.2 1.8 1.2 2.8v4c0 4.6 3.8 8.4 8.4 8.4s8.4-3.8 8.4-8.4v-5.3c0-7.2-5.8-13-13-13h-53c.8 2.4 1.2 5 1.2 7.6s0 1.7-.1 2.6h44.2Z" />
    <path fill="currentColor" d="M192.3 69.3c-2.2 0-4-1.8-4-4v-9.6c0-7.2-5.8-13-13-13h-9.5c-7.2 0-13 5.8-13 13v9.6c0 2.2-1.8 4-4 4s-4-1.8-4-4v-9.6c0-11.6 9.4-21 21-21h9.5c11.6 0 21 9.4 21 21v9.6c0 2.2-1.8 4-4 4" />
    <path fill="currentColor" d="M170.5 59.1c-2.2 0-4-1.8-4-4V38.7c0-2.2 1.8-4 4-4s4 1.8 4 4v16.4c0 2.2-1.8 4-4 4" />
  </symbol>

  <symbol id="star" viewBox="0 0 158.2 193.6">
    <path fill="currentColor" d="M120 193.6c-2.5 0-4.9-1.4-6.1-3.5l-23.5-40.3c-1.1-1.9-.5-4.4 1.5-5.6 1.9-1.1 4.4-.5 5.6 1.5l22.6 38.8 7.8-13.4c1.2-2.1 3.6-3.5 6.1-3.5h15.4l-22.8-38.8c-1.1-1.9-.5-4.4 1.4-5.6 1.9-1.1 4.4-.5 5.6 1.4l23.8 40.3c1.3 2.2 1.3 4.9 0 7.1s-3.6 3.6-6.1 3.6h-16.7l-8.4 14.5c-1.3 2.2-3.6 3.5-6.1 3.5ZM38.3 193.6c-2.5 0-4.8-1.3-6.1-3.5l-8.4-14.4H7c-2.5 0-4.9-1.5-6.1-3.7-1.3-2.2-1.2-4.9 0-7.1l23.6-40.3c1.1-1.9 3.6-2.6 5.6-1.5 1.9 1.1 2.6 3.6 1.5 5.6L8.9 167.4h15.4c2.5 0 4.9 1.4 6.1 3.6l7.8 13.3L60 145.4c1.1-2 3.6-2.7 5.5-1.6 2 1.1 2.7 3.6 1.6 5.5l-22.7 40.5c-1.3 2.2-3.6 3.6-6.1 3.6ZM9.4 52.5h6.8v-.8c-.2-3.5-.4-6.9.9-9.1s4.3-3.7 7.5-5.4c2.9-1.4 5.8-2.9 8.1-5.2s3.8-5.3 5.2-8.1c1.6-3.2 3.1-6.2 5.4-7.5 2.2-1.3 5.5-1.1 9.1-.9 3.2.2 6.6.4 9.8-.5 3.1-.8 5.8-2.6 8.4-4.4 3-2 5.9-3.9 8.6-3.9s5.5 1.9 8.6 3.9c2.6 1.7 5.4 3.5 8.4 4.4 3.2.9 6.5.7 9.8.5 3.5-.2 6.9-.4 9.1.9s3.7 4.3 5.4 7.5c1.4 2.9 2.9 5.8 5.2 8.1s5.3 3.8 8.1 5.2c3.2 1.6 6.2 3.1 7.5 5.4 1.3 2.2 1.1 5.5.9 9.1v.8h6.8v-.4c.2-4.4.5-8.9-1.8-12.8-2.3-4-6.6-6.1-10.3-8-2.5-1.3-4.9-2.4-6.4-4s-2.7-3.9-4-6.4c-1.9-3.8-4-8-8-10.3-3.9-2.3-8.5-2-12.8-1.8-2.8.2-5.5.3-7.6-.3-2-.5-4.2-2-6.5-3.5-3.5-2.3-7.6-5-12.3-5S70.6 2.7 67 5c-2.3 1.5-4.5 2.9-6.5 3.5-2.1.6-4.8.4-7.6.3-4.4-.2-8.9-.5-12.8 1.8-4 2.3-6.1 6.6-8 10.3-1.3 2.5-2.4 4.9-4 6.4-1.5 1.5-3.9 2.7-6.4 4-3.8 1.9-8 4-10.3 8-2.3 3.9-2 8.5-1.8 12.8v.4Z" />
    <path fill="currentColor" d="M142.2 109.5c0 1.8-.3 3.5-1 4.7-1.3 2.2-4.3 3.7-7.5 5.4-2.9 1.4-5.8 2.9-8.1 5.2s-3.8 5.3-5.2 8.1c-1.6 3.2-3.1 6.2-5.4 7.5-2.2 1.3-5.5 1.1-9.1.9-3.2-.2-6.6-.4-9.8.5-3.1.8-5.8 2.6-8.4 4.4-3 2-5.9 3.9-8.6 3.9s-5.5-1.9-8.6-3.9c-2.6-1.7-5.4-3.5-8.4-4.4-1.9-.5-3.8-.6-5.7-.6s-2.7 0-4.1.1c-3.5.2-6.9.4-9.1-.9s-3.7-4.3-5.4-7.5c-1.4-2.9-2.9-5.8-5.2-8.1s-5.3-3.8-8.1-5.2c-3.2-1.6-6.2-3.1-7.5-5.4-.7-1.3-1-2.9-1-4.7H9.2c0 2.8.5 5.6 1.9 8.1 2.3 4 6.6 6.1 10.3 8 2.5 1.3 4.9 2.4 6.4 4 1.5 1.5 2.7 3.9 4 6.4 1.9 3.8 4 8 8 10.3 3.9 2.3 8.5 2 12.8 1.8 2.8-.2 5.5-.3 7.6.3 2 .5 4.2 2 6.5 3.5 3.5 2.3 7.6 5 12.3 5s8.7-2.7 12.3-5c2.3-1.5 4.5-2.9 6.5-3.5 2.1-.6 4.8-.4 7.6-.3 4.4.2 8.9.5 12.8-1.8 4-2.3 6.1-6.6 8-10.3 1.3-2.5 2.4-4.9 4-6.4s3.9-2.7 6.4-4c3.8-1.9 8-4 10.3-8 1.5-2.5 1.9-5.3 1.9-8.1H142Z" />
    <path fill="currentColor" d="m120.2 118.5.7-.7c.3-.3.5-.6.8-.8l.4-.4c.3-.4.7-.8 1-1.2 0 0 0-.1.1-.2 8.3-10 13.3-22.8 13.3-36.7s-4.2-24.7-11.4-34.2c-.4-.5-.7-.9-1.1-1.4 0 0-.1-.2-.2-.2-.3-.4-.6-.8-1-1.2-.1-.1-.2-.2-.3-.4-.3-.3-.6-.7-.9-1-.1-.2-.3-.3-.4-.5-.3-.3-.5-.6-.8-.9-.2-.2-.3-.4-.5-.5l-.7-.7-.6-.6c-.2-.2-.4-.3-.5-.5-1.6-1.4-3.2-2.8-4.9-4.1-.5-.3-.9-.7-1.4-1s-.9-.6-1.4-.9c-9-5.8-19.6-9.2-31.1-9.2s-22.1 3.4-31 9.1c-.5.3-1 .7-1.5 1 0 0-.1 0-.2.1-.5.3-.9.7-1.4 1 0 0-.2.1-.3.2l-1.2.9c-.1.1-.3.2-.4.3-.4.3-.7.6-1 .9-.2.2-.4.3-.5.5-.3.3-.6.5-.9.8l-.6.6-.7.7c-.3.2-.5.5-.8.7l-.6.6-.9.9c-.1.2-.3.3-.4.5-.3.4-.6.7-.9 1.1 0 .1-.2.2-.3.3-.3.4-.7.8-1 1.2l-.2.2c-.4.5-.7.9-1.1 1.4C26.3 53.8 22 65.6 22 78.4s3.4 22.1 9.2 31.1c.3.5.6 1 1 1.5 1.6 2.2 3.3 4.4 5.1 6.4l.5.5.6.6.7.7.5.5c.3.3.6.6.9.8l.4.4c.3.3.7.6 1 .9.1 0 .2.2.3.3.4.3.8.7 1.2 1l.2.2c9.8 7.8 22.2 12.5 35.7 12.5s29.1-6 39.4-15.7l.2-.2c.3-.3.7-.6 1-1 .2-.2.3-.4.5-.5ZM51.6 121q-2.25-1.5-4.5-3.3c-2.9-2.4-5.5-5.1-7.8-8-6.7-8.6-10.7-19.4-10.7-31.1s2.7-18.5 7.3-26.1c.2-.4.5-.8.7-1.1 0 0 .1-.2.2-.2.2-.4.5-.7.7-1.1 0 0 .1-.2.2-.3.2-.3.5-.7.7-1 0-.1.2-.2.2-.3.2-.3.5-.6.7-1 0-.1.2-.2.3-.3.2-.3.5-.6.7-.9.1-.1.2-.3.3-.4.2-.3.5-.5.7-.8.1-.1.2-.3.4-.4.2-.3.5-.5.7-.7.1-.2.3-.3.4-.5.2-.2.4-.5.7-.7l.5-.5.6-.6c.2-.2.4-.3.6-.5s.4-.4.6-.5c.2-.2.4-.4.6-.5.2-.2.4-.3.6-.5s.5-.4.7-.6c.2-.1.4-.3.5-.4.3-.2.5-.4.8-.6.2-.1.3-.2.5-.4.3-.2.5-.4.8-.6.2-.1.3-.2.5-.3l.9-.6c.1 0 .3-.2.4-.3l.9-.6c7.6-4.6 16.6-7.3 26.2-7.3s22.5 4 31.1 10.7c2.2 1.7 4.3 3.7 6.2 5.7l1.8 2.1q1.8 2.1 3.3 4.5c5.1 7.9 8.1 17.4 8.1 27.5s-4.2 22.9-11.1 31.5c-.3.4-.6.8-1 1.2-.3.3-.6.7-.9 1-.3.4-.6.7-1 1-.3.4-.7.7-1 1l-.9.9c-.4.4-.8.7-1.2 1.1-.3.3-.6.5-.9.8-.4.4-.9.7-1.3 1.1-8.6 6.9-19.6 11-31.5 11s-19.6-3-27.5-8.1Z" />
    <path fill="currentColor" d="M53.1 148.1v-6.8h-.8c-3.5.2-6.9.4-9.1-.9s-3.7-4.3-5.4-7.5c-1.4-2.9-2.9-5.8-5.2-8.1s-5.3-3.8-8.1-5.2c-3.2-1.6-6.2-3.1-7.5-5.4-1.3-2.2-1.1-5.5-.9-9.1.2-3.2.4-6.6-.5-9.8-.8-3.1-2.6-5.8-4.4-8.4-2-3-3.9-5.9-3.9-8.6s1.9-5.5 3.9-8.6c1.7-2.6 3.5-5.4 4.4-8.4.9-3.2.7-6.5.5-9.8-.2-3.5-.4-6.9.9-9.1s4.3-3.7 7.5-5.4c2.9-1.4 5.8-2.9 8.1-5.2s3.8-5.3 5.2-8.1c1.6-3.2 3.1-6.2 5.4-7.5 2.2-1.3 5.5-1.1 9.1-.9h.8V8.5h-.4c-4.4-.2-8.9-.5-12.8 1.8-4 2.3-6.1 6.6-8 10.3-1.3 2.5-2.4 4.9-4 6.4-1.5 1.5-3.9 2.7-6.4 4-3.8 1.9-8 4-10.3 8-2.3 3.9-2 8.5-1.8 12.8.2 2.8.3 5.5-.3 7.6-.5 2-2 4.2-3.5 6.5-2.3 3.5-5 7.6-5 12.3s2.7 8.7 5 12.3C7.1 92.8 8.5 95 9.1 97c.6 2.1.4 4.8.3 7.6-.2 4.4-.5 8.9 1.8 12.8 2.3 4 6.6 6.1 10.3 8 2.5 1.3 4.9 2.4 6.4 4 1.5 1.5 2.7 3.9 4 6.4 1.9 3.8 4 8 8 10.3 3.9 2.3 8.5 2 12.8 1.8h.4ZM110.2 15.4c1.8 0 3.5.3 4.7 1 2.2 1.3 3.7 4.3 5.4 7.5 1.4 2.9 2.9 5.8 5.2 8.1s5.3 3.8 8.1 5.2c3.2 1.6 6.2 3.1 7.5 5.4 1.3 2.2 1.1 5.5.9 9.1-.2 3.2-.4 6.6.5 9.8.8 3.1 2.6 5.8 4.4 8.4 2 3 3.9 5.9 3.9 8.6s-1.9 5.5-3.9 8.6c-1.7 2.6-3.5 5.4-4.4 8.4-.5 1.9-.6 3.8-.6 5.7s0 2.7.1 4.1c.2 3.5.4 6.9-.9 9.1s-4.3 3.7-7.5 5.4c-2.9 1.4-5.8 2.9-8.1 5.2s-3.8 5.3-5.2 8.1c-1.6 3.2-3.1 6.2-5.4 7.5-1.3.7-2.9 1-4.7 1v6.8c2.8 0 5.6-.5 8.1-1.9 4-2.3 6.1-6.6 8-10.3 1.3-2.5 2.4-4.9 4-6.4 1.5-1.5 3.9-2.7 6.4-4 3.8-1.9 8-4 10.3-8 2.3-3.9 2-8.5 1.8-12.8-.2-2.8-.3-5.5.3-7.6.5-2 2-4.2 3.5-6.5 2.3-3.5 5-7.6 5-12.3s-2.7-8.7-5-12.3c-1.5-2.3-2.9-4.5-3.5-6.5-.6-2.1-.4-4.8-.3-7.6.2-4.4.5-8.9-1.8-12.8-2.3-4-6.6-6.1-10.3-8-2.5-1.3-4.9-2.4-6.4-4-1.5-1.5-2.7-3.9-4-6.4-1.9-3.8-4-8-8-10.3-2.5-1.5-5.3-1.9-8.1-1.9v6.8Z" />
    <path fill="currentColor" d="M61.9 106.7c-.8 0-1.7-.3-2.4-.8-1.3-.9-1.9-2.5-1.6-4l2.9-17.1-12.4-12.1c-1.1-1.1-1.5-2.7-1-4.2s1.8-2.5 3.3-2.8l17.1-2.5 7.7-15.5c.7-1.4 2.1-2.3 3.7-2.3s3 .9 3.7 2.3l7.7 15.5 17.1 2.5c1.5.2 2.8 1.3 3.3 2.8s0 3.1-1 4.2L97.6 84.8l2.9 17.1c.3 1.5-.4 3.1-1.6 4-1.3.9-2.9 1-4.3.3l-15.3-8.1-15.3 8.1c-.6.3-1.2.5-1.9.5Zm17.2-17.2c.7 0 1.3.2 1.9.5l9.9 5.2-1.9-11c-.2-1.3.2-2.7 1.2-3.6l8-7.8-11.1-1.6c-1.3-.2-2.5-1-3.1-2.2l-5-10-5 10c-.6 1.2-1.7 2-3.1 2.2l-11.1 1.6 8 7.8c1 .9 1.4 2.3 1.2 3.6l-1.9 11L77 90c.6-.3 1.2-.5 1.9-.5Z" />
  </symbol>
</svg>